<svg width="56" height="56" viewBox="0 0 56 56" fill="none" xmlns="http://www.w3.org/2000/svg">
<g clip-path="url(#clip0_5_227)">
<path fill-rule="evenodd" clip-rule="evenodd" d="M13.02 44.24L0 37.52V18.2874L28.98 3.92L42 10.64V29.96L13.02 44.24Z" fill="#24AE5F"/>
<path fill-rule="evenodd" clip-rule="evenodd" d="M0 36.1502V37.8207L12.9881 44.5026L41.8964 30.3033V28.6328L12.9881 42.8322L0 36.1502ZM0 33.227V34.8975L12.9881 41.5794L41.8964 27.3806V25.7096L12.9881 39.909L0 33.227ZM0 27.3801V29.0506L12.9881 35.7325L41.8964 21.5337V19.8632L12.9881 34.062L0 27.3801ZM0 30.3033V31.9738L12.9881 38.6557L41.8964 24.4563V22.7858L12.9881 36.9858L0 30.3033ZM0 24.4569V26.1274L12.9881 32.8093L41.8964 18.6099V16.94L12.9881 31.1388L0 24.4569ZM13.0206 25.2756L0 18.527V20.2143L13.0206 26.9623L42.0017 12.6224V10.9351L13.0206 25.2756ZM0 21.5337V23.2042L13.0206 29.8861L42.0017 15.6867V14.0162L13.0206 28.2156L0 21.5337Z" fill="#1E9450"/>
<path fill-rule="evenodd" clip-rule="evenodd" d="M26.9556 51.9215L14 45.239V28.8288L42.8372 14.63L56.0011 21.3539V37.5939L26.9556 51.9215Z" fill="#24AE5F"/>
<path fill-rule="evenodd" clip-rule="evenodd" d="M14 43.1676V44.8381L27.02 51.52L56 37.3206V35.6502L27.02 49.8495L14 43.1676ZM14 40.2444V41.9149L27.02 48.5968L56 34.3974V32.727L27.02 46.9258L14 40.2444ZM14 34.3974V36.0679L27.02 42.7498L56 28.5505V26.88L27.02 41.0794L14 34.3974ZM14 37.3206V38.9911L27.02 45.6736L56 31.4742V29.8038L27.02 44.0026L14 37.3206ZM14 31.4742V33.1447L27.02 39.8266L56 25.6273V23.9568L27.02 38.1562L14 31.4742ZM27.02 35.0398L14 28.3584V30.0289L27.02 36.7108L56 22.5114V20.841L27.02 35.0398Z" fill="#1E9450"/>
<path opacity="0.1" d="M12.9881 25.2924L0 18.62V37.8526L13.02 44.52L12.9881 25.2924ZM26.9881 35.056L14 28.3836V44.7871L27.02 51.4545L26.9881 35.056Z" fill="black"/>
<path d="M35.9715 26.2965C36.3502 26.3081 36.7278 26.2508 37.0859 26.1274L35.1097 25.0802L34.9417 25.1238L34.7266 25.1927C34.4338 25.2806 34.1336 25.3618 33.825 25.4352C33.5165 25.5086 33.2029 25.5545 32.8842 25.573C32.5656 25.5914 32.2475 25.5724 31.9311 25.5164C31.5996 25.4553 31.2796 25.3424 30.983 25.1821C30.6616 25.0118 30.4382 24.8293 30.3133 24.635C30.1884 24.4401 30.1419 24.2463 30.1733 24.0526C30.2046 23.8588 30.3054 23.6684 30.4746 23.4819C30.6634 23.2793 30.8805 23.105 31.1191 22.9645L30.3911 22.5786L30.9405 22.2874L31.6685 22.6733C31.9829 22.5405 32.3077 22.4337 32.6395 22.3541C32.9758 22.2729 33.3192 22.2251 33.6649 22.2113C34.0189 22.1984 34.3732 22.2241 34.7216 22.288C35.0872 22.3553 35.4423 22.4706 35.7778 22.6307L34.4556 23.3313C34.1825 23.1972 33.8839 23.123 33.5798 23.1134C33.2544 23.0989 32.9862 23.1476 32.775 23.2596L34.4489 24.1466L34.7339 24.0559L35.047 23.9602C35.6322 23.7838 36.1423 23.679 36.5763 23.6454C37.0103 23.613 37.3878 23.6186 37.7075 23.6628C38.0273 23.7076 38.2989 23.7776 38.5223 23.8722C38.7458 23.968 38.9367 24.0576 39.0941 24.141C39.233 24.2144 39.3735 24.3253 39.5163 24.4737C39.6591 24.6221 39.7431 24.7962 39.7678 24.9967C39.793 25.1972 39.7347 25.4184 39.5947 25.6598C39.4542 25.9011 39.1669 26.1537 38.7334 26.4174L39.537 26.8436L38.9877 27.1348L38.1841 26.7086C37.4382 27.0502 36.6777 27.2227 35.9021 27.2261C35.1265 27.23 34.3358 27.0508 33.5294 26.689L34.842 25.9935C35.188 26.1855 35.5759 26.2895 35.9715 26.2965ZM37.9035 25.6082C37.9836 25.5226 38.034 25.4341 38.0547 25.3428C38.0751 25.2495 38.0603 25.152 38.0133 25.069C37.9651 24.9777 37.8654 24.892 37.7137 24.8119C37.4743 24.6831 37.2038 24.6233 36.9325 24.6394C36.6575 24.6551 36.2862 24.733 35.8192 24.8735L37.6347 25.8356C37.7332 25.771 37.8235 25.6946 37.9035 25.6082ZM31.9647 23.739C31.9023 23.7983 31.8593 23.8753 31.8415 23.9596C31.8347 23.9999 31.8361 24.0411 31.8455 24.0808C31.855 24.1205 31.8723 24.158 31.8964 24.1909C31.9474 24.2676 32.0392 24.341 32.1719 24.411C32.3802 24.5213 32.6059 24.5722 32.8495 24.5633C33.0931 24.5543 33.3989 24.4888 33.7662 24.3678L32.2246 23.5514C32.1287 23.6 32.041 23.6633 31.9647 23.739Z" fill="#1E9450"/>
<path fill-rule="evenodd" clip-rule="evenodd" d="M19.3666 18.261L13.0033 21.3181L7.57017 18.3949L14.9274 14.7907C14.9274 14.7907 14.4162 13.3235 14.7292 13.1001C14.7236 13.1264 3.87305 18.5276 3.87305 18.5276L13.1595 23.1706L22.7064 18.3977C22.7064 18.3977 21.7718 18.4285 20.9435 18.3943C20.1024 18.3607 19.3666 18.261 19.3666 18.261ZM26.8963 16.3033L38.1288 10.92L29.0014 5.96456L19.4634 10.733C20.9094 10.6585 22.0938 11.2806 22.0938 11.2806L28.8843 7.95424L34.7352 10.878L26.9014 14.6412L26.8963 16.3033Z" fill="#1E9450"/>
<path d="M21.7404 16.2165C22.1191 16.2284 22.4967 16.1711 22.8548 16.0474L20.878 15.0002L20.71 15.0438L20.495 15.1127C20.1968 15.2022 19.8962 15.2831 19.5934 15.3552C19.2848 15.4286 18.9712 15.4745 18.6526 15.493C18.3339 15.5114 18.0164 15.4924 17.6994 15.4364C17.3679 15.3753 17.0479 15.2624 16.7514 15.1021C16.4299 14.9318 16.2065 14.7493 16.0816 14.555C15.9567 14.3601 15.9102 14.1663 15.9416 13.9726C15.9735 13.7788 16.0738 13.589 16.2429 13.4025C16.4317 13.1999 16.6488 13.0256 16.8874 12.885L16.1594 12.4992L16.7088 12.208L17.4368 12.5938C17.7512 12.4611 18.076 12.3543 18.4078 12.2746C18.7441 12.1935 19.0876 12.1456 19.4332 12.1318C19.7872 12.119 20.1415 12.1447 20.4899 12.2086C20.8555 12.2759 21.2106 12.3911 21.5461 12.5513L20.2239 13.2518C19.9508 13.1178 19.6522 13.0435 19.3481 13.034C19.0227 13.0194 18.7545 13.0682 18.5434 13.1802L20.2172 14.0672L20.5022 13.9759L20.8153 13.8802C21.4005 13.7038 21.9106 13.599 22.3446 13.5654C22.7786 13.5324 23.1561 13.5386 23.4758 13.5828C23.7956 13.6276 24.0672 13.6976 24.2906 13.7928C24.5141 13.8886 24.705 13.9782 24.8624 14.0616C25.0013 14.135 25.1418 14.2458 25.2846 14.3942C25.4274 14.5426 25.5114 14.7168 25.5361 14.9173C25.5613 15.1178 25.503 15.339 25.363 15.5803C25.2225 15.8217 24.9352 16.0742 24.5018 16.338L25.3054 16.7642L24.756 17.0554L23.9524 16.6292C23.2065 16.9708 22.446 17.1433 21.6704 17.1466C20.8948 17.1506 20.1041 16.9714 19.2977 16.6096L20.6103 15.9141C20.9631 16.1073 21.34 16.2081 21.7404 16.2165ZM23.6724 15.5282C23.7525 15.4426 23.8029 15.3541 23.823 15.2628C23.8434 15.1695 23.8286 15.072 23.7816 14.989C23.7334 14.8977 23.6338 14.812 23.482 14.7314C23.2426 14.6025 22.9722 14.5428 22.7008 14.5589L21.5875 14.7935L23.403 15.7556C23.5027 15.6901 23.5923 15.6145 23.6724 15.5282ZM17.7336 13.659C17.6711 13.7183 17.6282 13.7953 17.6104 13.8796C17.6036 13.9199 17.605 13.9611 17.6144 14.0008C17.6238 14.0405 17.6411 14.078 17.6653 14.1109C17.7168 14.1876 17.8081 14.261 17.9408 14.331C18.1491 14.4413 18.3748 14.4922 18.619 14.4833C18.8626 14.4743 19.1683 14.4088 19.5357 14.2878L17.994 13.4714C17.8979 13.5198 17.81 13.5831 17.7336 13.659Z" fill="#1E9450"/>
</g>
<defs>
<clipPath id="clip0_5_227">
<rect width="56" height="56" fill="white"/>
</clipPath>
</defs>
</svg>
