<svg width="124" height="110" viewBox="0 0 124 110" fill="none" xmlns="http://www.w3.org/2000/svg">
<path d="M61.7273 0C84.371 0 102.727 18.3563 102.727 41V68.0425C102.727 90.6862 84.371 109.043 61.7273 109.043V0Z" fill="#555754"/>
<path d="M61.7273 0C39.0836 0 20.7273 18.3563 20.7273 41V68.0425C20.7273 90.6862 39.0836 109.043 61.7273 109.043V0Z" fill="#484D50"/>
<mask id="mask0_5_110" style="mask-type:alpha" maskUnits="userSpaceOnUse" x="35" y="19" width="53" height="71">
<rect x="35.5569" y="19.1915" width="52.3404" height="70.6596" rx="26.1702" fill="#5D5D5D"/>
</mask>
<g mask="url(#mask0_5_110)">
<path d="M61.7275 19.1916C58.1377 19.1916 54.5688 19.7387 51.1439 20.8141L61.7275 54.5214V19.1916Z" fill="#363536"/>
<path d="M61.727 89.8512C58.1372 89.8512 54.5683 89.304 51.1434 88.2286L61.727 54.5214V89.8512Z" fill="#333233"/>
<path d="M51.1538 20.811C45.8447 22.4762 41.0041 25.3719 37.026 29.2621C33.0479 33.1524 30.0449 37.9272 28.2615 43.1978L61.7275 54.5214L51.1538 20.811Z" fill="#393839"/>
<path d="M51.1533 88.2318C45.8442 86.5665 41.0036 83.6708 37.0255 79.7806C33.0474 75.8903 30.0444 71.1155 28.261 65.845L61.727 54.5214L51.1533 88.2318Z" fill="#2E2E2E"/>
<path d="M28.265 43.1876C27.0272 46.8421 26.3964 50.6747 26.3977 54.5331L61.7275 54.5214L28.265 43.1876Z" fill="#313031"/>
<path d="M28.2645 65.8551C27.0267 62.2006 26.3959 58.368 26.3972 54.5096L61.727 54.5214L28.2645 65.8551Z" fill="#313031"/>
<path d="M61.7276 19.1916C65.3174 19.1916 68.8863 19.7387 72.3112 20.8141L61.7276 54.5213V19.1916Z" fill="#5D5B5D"/>
<path d="M61.7276 89.8512C65.3174 89.8512 68.8863 89.304 72.3112 88.2286L61.7276 54.5214V89.8512Z" fill="#424342"/>
<path d="M72.3013 20.811C77.6103 22.4762 82.451 25.3719 86.4291 29.2621C90.4072 33.1524 93.4102 37.9272 95.1935 43.1978L61.7276 54.5213L72.3013 20.811Z" fill="#4F4F4F"/>
<path d="M72.3013 88.2318C77.6103 86.5665 82.451 83.6708 86.4291 79.7806C90.4072 75.8903 93.4102 71.1155 95.1935 65.845L61.7276 54.5214L72.3013 88.2318Z" fill="#3F3C3F"/>
<path d="M95.1901 43.1876C96.4279 46.8421 97.0587 50.6747 97.0574 54.5331L61.7276 54.5213L95.1901 43.1876Z" fill="#474747"/>
<path d="M95.1901 65.8551C96.4279 62.2006 97.0587 58.368 97.0574 54.5096L61.7276 54.5214L95.1901 65.8551Z" fill="#3F403F"/>
</g>
<rect x="46.4612" y="35.3299" width="30.5319" height="38.383" rx="15.266" fill="#C5C3C5"/>
<mask id="mask1_5_110" style="mask-type:alpha" maskUnits="userSpaceOnUse" x="46" y="35" width="31" height="39">
<path d="M46.4612 50.5958C46.4612 42.1647 53.296 35.3299 61.7271 35.3299C70.1583 35.3299 76.9931 42.1647 76.9931 50.5958V58.4469C76.9931 66.8781 70.1583 73.7129 61.7271 73.7129C53.296 73.7129 46.4612 66.8781 46.4612 58.4469V50.5958Z" fill="#C5C3C5"/>
</mask>
<g mask="url(#mask1_5_110)">
<path d="M61.7274 35.3299C59.7774 35.3299 57.8387 35.6271 55.9783 36.2112L61.7274 54.5214V35.3299Z" fill="#656665"/>
<path d="M61.7274 73.7129C59.7774 73.7129 57.8387 73.4157 55.9783 72.8315L61.7274 54.5214V73.7129Z" fill="#5A5B5D"/>
<path d="M55.9836 36.2096C53.0997 37.1141 50.4702 38.6871 48.3093 40.8003C46.1483 42.9135 44.5171 45.5073 43.5483 48.3703L61.7274 54.5214L55.9836 36.2096Z" fill="#6B6C6D"/>
<path d="M55.9836 72.8332C53.0997 71.9286 50.4702 70.3557 48.3093 68.2424C46.1483 66.1292 44.5171 63.5355 43.5483 60.6725L61.7274 54.5214L55.9836 72.8332Z" fill="#545654"/>
<path d="M43.5502 48.3648C42.8778 50.3499 42.5352 52.4318 42.5359 54.5278L61.7274 54.5214L43.5502 48.3648Z" fill="#656668"/>
<path d="M43.5502 60.678C42.8778 58.6928 42.5352 56.6109 42.5359 54.515L61.7274 54.5214L43.5502 60.678Z" fill="#5A5A5D"/>
<path d="M61.7279 35.3299C63.678 35.3299 65.6166 35.6271 67.4771 36.2112L61.7279 54.5214V35.3299Z" fill="#C3C3C6"/>
<path d="M61.7272 73.7129C63.6772 73.7129 65.6159 73.4157 67.4763 72.8315L61.7272 54.5214V73.7129Z" fill="#6A6A6A"/>
<path d="M67.4717 36.2096C70.3556 37.1141 72.9851 38.6871 75.1461 40.8003C77.307 42.9135 78.9382 45.5073 79.907 48.3703L61.7279 54.5214L67.4717 36.2096Z" fill="#949394"/>
<path d="M67.471 72.8332C70.3549 71.9286 72.9844 70.3557 75.1453 68.2424C77.3063 66.1292 78.9375 63.5355 79.9062 60.6725L61.7272 54.5214L67.471 72.8332Z" fill="#636463"/>
<path d="M79.9051 48.3648C80.5775 50.3499 80.9201 52.4318 80.9194 54.5278L61.7279 54.5214L79.9051 48.3648Z" fill="#79797A"/>
<path d="M79.9044 60.678C80.5768 58.6928 80.9194 56.6109 80.9187 54.515L61.7272 54.5214L79.9044 60.678Z" fill="#6A6A6A"/>
</g>
<path d="M97.0569 65.4258C97.0568 84.9378 81.2397 100.756 61.7278 100.756C42.2157 100.756 26.3978 84.9379 26.3977 65.4258V58.0108H29.0149V64.9893C29.0149 83.0561 43.661 97.7022 61.7278 97.7022C79.7945 97.7022 94.4407 83.0561 94.4407 64.9893V58.0108H97.0569V65.4258Z" fill="#7B797B"/>
<path d="M97.0569 42.3085C97.0568 22.7966 81.2397 6.9786 61.7278 6.97844C42.2157 6.97844 26.3978 22.7965 26.3977 42.3085V49.7236H29.0149V42.745C29.0149 24.6783 43.661 10.0322 61.7278 10.0322C79.7945 10.0322 94.4407 24.6783 94.4407 42.745V49.7236H97.0569V42.3085Z" fill="#7B797B"/>
<g filter="url(#filter0_d_5_110)">
<path d="M21.6001 54.5214H27.7065V61.9363C26.3503 58.8358 24.9713 56.9197 21.6001 54.5214Z" fill="#A2A19F"/>
<path d="M33.8127 54.5214H27.7064V61.9363C29.0625 58.8358 30.4415 56.9197 33.8127 54.5214Z" fill="#D6D7D6"/>
<path d="M21.6001 54.5214H27.7065V47.1065C26.3503 50.2069 24.9713 52.123 21.6001 54.5214Z" fill="#BDBEBD"/>
<path d="M33.8127 54.5214H27.7064V47.1065C29.0625 50.2069 30.4415 52.123 33.8127 54.5214Z" fill="white"/>
</g>
<g filter="url(#filter1_d_5_110)">
<path d="M89.6423 54.5214H95.7487V61.9363C94.3926 58.8359 93.0136 56.9198 89.6423 54.5214Z" fill="#A2A19F"/>
<path d="M101.855 54.5214H95.7486V61.9363C97.1048 58.8358 98.4838 56.9197 101.855 54.5214Z" fill="#D6D7D6"/>
<path d="M89.6423 54.5214H95.7487V47.1065C94.3926 50.207 93.0136 52.1231 89.6423 54.5214Z" fill="#BDBEBD"/>
<path d="M101.855 54.5214H95.7486V47.1065C97.1048 50.2069 98.4838 52.123 101.855 54.5214Z" fill="white"/>
</g>
<g filter="url(#filter2_d_5_110)">
<path d="M47.3337 54.5214H61.7274V71.9994C58.5307 64.6912 55.2802 60.1746 47.3337 54.5214Z" fill="#A2A19F"/>
<path d="M76.1208 54.5213H61.7272V71.9993C64.9239 64.6911 68.1744 60.1746 76.1208 54.5213Z" fill="#D6D7D6"/>
<path d="M47.3337 54.5213H61.7274V37.0434C58.5307 44.3516 55.2802 48.8681 47.3337 54.5213Z" fill="#BDBEBD"/>
<path d="M76.1208 54.5213H61.7272V37.0434C64.9239 44.3516 68.1744 48.8681 76.1208 54.5213Z" fill="white"/>
</g>
<path d="M61.7273 6.11346C70.575 6.2663 78.6801 9.4637 85.0398 14.7043L81.6365 18.7609C76.1277 14.469 69.228 11.8795 61.7273 11.7805V6.11346Z" fill="#E7E7E7"/>
<path d="M61.7273 6.11323V11.7802C61.5789 11.7783 61.4299 11.7763 61.281 11.7763C53.3851 11.7764 46.1339 14.5376 40.4402 19.1464L36.866 14.8867C43.4161 9.40571 51.8544 6.10642 61.0632 6.10639C61.285 6.10639 61.5064 6.10942 61.7273 6.11323Z" fill="#AFAFAF"/>
<path d="M61.7273 101.926V96.2541C69.2021 96.1726 76.0546 93.4976 81.4275 89.0866L85.0652 93.4217C78.7398 98.7046 70.6056 101.894 61.7273 101.926Z" fill="#E7E7E7"/>
<path d="M61.7276 96.254V101.926C61.6831 101.926 61.6385 101.926 61.5939 101.926C52.4826 101.926 44.1482 98.6004 37.7383 93.0966L41.1934 88.979C46.6694 93.5236 53.7035 96.256 61.3758 96.256C61.4932 96.256 61.6105 96.2553 61.7276 96.254Z" fill="#AFAFAF"/>
<defs>
<filter id="filter0_d_5_110" x="9.72748e-05" y="25.5065" width="55.4126" height="58.0298" filterUnits="userSpaceOnUse" color-interpolation-filters="sRGB">
<feFlood flood-opacity="0" result="BackgroundImageFix"/>
<feColorMatrix in="SourceAlpha" type="matrix" values="0 0 0 0 0 0 0 0 0 0 0 0 0 0 0 0 0 0 127 0" result="hardAlpha"/>
<feOffset/>
<feGaussianBlur stdDeviation="10.8"/>
<feComposite in2="hardAlpha" operator="out"/>
<feColorMatrix type="matrix" values="0 0 0 0 0 0 0 0 0 0 0 0 0 0 0 0 0 0 0.65 0"/>
<feBlend mode="normal" in2="BackgroundImageFix" result="effect1_dropShadow_5_110"/>
<feBlend mode="normal" in="SourceGraphic" in2="effect1_dropShadow_5_110" result="shape"/>
</filter>
<filter id="filter1_d_5_110" x="68.0423" y="25.5065" width="55.4126" height="58.0298" filterUnits="userSpaceOnUse" color-interpolation-filters="sRGB">
<feFlood flood-opacity="0" result="BackgroundImageFix"/>
<feColorMatrix in="SourceAlpha" type="matrix" values="0 0 0 0 0 0 0 0 0 0 0 0 0 0 0 0 0 0 127 0" result="hardAlpha"/>
<feOffset/>
<feGaussianBlur stdDeviation="10.8"/>
<feComposite in2="hardAlpha" operator="out"/>
<feColorMatrix type="matrix" values="0 0 0 0 0 0 0 0 0 0 0 0 0 0 0 0 0 0 0.65 0"/>
<feBlend mode="normal" in2="BackgroundImageFix" result="effect1_dropShadow_5_110"/>
<feBlend mode="normal" in="SourceGraphic" in2="effect1_dropShadow_5_110" result="shape"/>
</filter>
<filter id="filter2_d_5_110" x="25.7337" y="15.4434" width="71.9871" height="78.156" filterUnits="userSpaceOnUse" color-interpolation-filters="sRGB">
<feFlood flood-opacity="0" result="BackgroundImageFix"/>
<feColorMatrix in="SourceAlpha" type="matrix" values="0 0 0 0 0 0 0 0 0 0 0 0 0 0 0 0 0 0 127 0" result="hardAlpha"/>
<feOffset/>
<feGaussianBlur stdDeviation="10.8"/>
<feComposite in2="hardAlpha" operator="out"/>
<feColorMatrix type="matrix" values="0 0 0 0 0 0 0 0 0 0 0 0 0 0 0 0 0 0 0.65 0"/>
<feBlend mode="normal" in2="BackgroundImageFix" result="effect1_dropShadow_5_110"/>
<feBlend mode="normal" in="SourceGraphic" in2="effect1_dropShadow_5_110" result="shape"/>
</filter>
</defs>
</svg>
