<svg width="42" height="42" viewBox="0 0 42 42" fill="none" xmlns="http://www.w3.org/2000/svg">
<g clip-path="url(#clip0_5_199)">
<path d="M37.9984 18.34L34.0901 17.1733C33.8199 16.2299 33.4483 15.3184 32.9818 14.455L34.8951 10.8733C34.9669 10.7381 34.9932 10.5834 34.9701 10.4321C34.9469 10.2808 34.8756 10.1409 34.7668 10.0333L31.9784 7.23333C31.8708 7.12445 31.731 7.05315 31.5797 7.03004C31.4284 7.00692 31.2736 7.03321 31.1384 7.105L27.5801 9.00667C26.7081 8.51744 25.7847 8.12617 24.8268 7.84L23.6601 3.97833C23.6107 3.83602 23.5175 3.71303 23.3938 3.62708C23.2701 3.54112 23.1223 3.49663 22.9718 3.5H19.0284C18.8769 3.50071 18.7296 3.54974 18.6079 3.63997C18.4862 3.7302 18.3965 3.85691 18.3518 4.00167L17.1851 7.85167C16.2191 8.13631 15.2878 8.52761 14.4084 9.01833L10.9084 7.12833C10.7732 7.05654 10.6185 7.03025 10.4672 7.05337C10.3158 7.07649 10.176 7.14778 10.0684 7.25667L7.23342 10.0217C7.12454 10.1293 7.05324 10.2691 7.03012 10.4204C7.00701 10.5717 7.03329 10.7265 7.10509 10.8617L8.99509 14.3617C8.50515 15.2374 8.11387 16.1647 7.82842 17.1267L3.96675 18.2933C3.822 18.338 3.69529 18.4278 3.60506 18.5495C3.51483 18.6712 3.46579 18.8185 3.46509 18.97V22.9133C3.46579 23.0648 3.51483 23.2122 3.60506 23.3339C3.69529 23.4556 3.822 23.5453 3.96675 23.59L7.85175 24.7567C8.14032 25.7026 8.53154 26.6142 9.01842 27.475L7.10509 31.1383C7.03329 31.2735 7.00701 31.4283 7.03012 31.5796C7.05324 31.7309 7.12454 31.8707 7.23342 31.9783L10.0218 34.7667C10.1293 34.8756 10.2692 34.9468 10.4205 34.97C10.5718 34.9931 10.7266 34.9668 10.8618 34.895L14.4668 32.97C15.3195 33.4302 16.2191 33.7978 17.1501 34.0667L18.3168 37.9983C18.3615 38.1431 18.4512 38.2698 18.5729 38.36C18.6946 38.4503 18.8419 38.4993 18.9934 38.5H22.9368C23.0883 38.4993 23.2356 38.4503 23.3573 38.36C23.479 38.2698 23.5687 38.1431 23.6134 37.9983L24.7801 34.055C25.7031 33.7848 26.5948 33.4171 27.4401 32.9583L31.0684 34.895C31.2036 34.9668 31.3584 34.9931 31.5097 34.97C31.661 34.9468 31.8008 34.8756 31.9084 34.7667L34.6968 31.9783C34.8056 31.8707 34.8769 31.7309 34.9001 31.5796C34.9232 31.4283 34.8969 31.2735 34.8251 31.1383L32.8884 27.5217C33.352 26.6731 33.7236 25.7775 33.9968 24.85L37.9284 23.6833C38.0732 23.6386 38.1999 23.5489 38.2901 23.4272C38.3803 23.3055 38.4294 23.1582 38.4301 23.0067V19.0283C38.437 18.8833 38.3993 18.7396 38.3221 18.6165C38.245 18.4935 38.132 18.397 37.9984 18.34ZM21.0001 27.4167C19.731 27.4167 18.4904 27.0403 17.4352 26.3353C16.38 25.6302 15.5575 24.628 15.0719 23.4556C14.5862 22.2831 14.4591 20.9929 14.7067 19.7482C14.9543 18.5035 15.5654 17.3601 16.4628 16.4627C17.3602 15.5653 18.5035 14.9542 19.7483 14.7066C20.993 14.459 22.2831 14.5861 23.4556 15.0718C24.6281 15.5574 25.6303 16.3799 26.3354 17.4351C27.0404 18.4903 27.4168 19.7309 27.4168 21C27.4168 22.7018 26.7407 24.3339 25.5374 25.5373C24.334 26.7406 22.7019 27.4167 21.0001 27.4167Z" fill="white"/>
</g>
<defs>
<clipPath id="clip0_5_199">
<rect width="42" height="42" fill="white"/>
</clipPath>
</defs>
</svg>
